<svg xmlns="http://www.w3.org/2000/svg" viewBox="0 0 40 40" xml:space="preserve">
  <path d="M1 0C.4 0 0 .4 0 1v11.4h1.9V1.9h9.5V0H1zm27.6 0v1.9h9.5v10.5H40V1c0-.5-.4-1-1-1H28.6zm-7.7 8.6c-5.3 0-7.3 4.1-5.7 7.6-.2.1-.5.5-.4 1.2.2 1.3.7 1.6 1 1.6.1 1.2.9 2.6 1.3 2.8 0 .8 0 1.5-.1 2.4-1 2.7-7.2 2-7.5 7.2h21c-.3-5.2-6.9-4.5-7.9-7.2-.1-.9-.1-1.6-.1-2.4.4-.2 1.2-1.6 1.3-2.8.3 0 .8-.4 1-1.6.1-.7-.2-1.1-.4-1.2 1-1.3.8-6.5-2.9-6.5l-.6-1.1zM0 29.5V39c0 .5.4 1 1 1h10.5v-1.9H1.9v-8.6H0zm38.1 0v8.6h-9.5V40H39c.5 0 1-.4 1-1v-9.5h-1.9z" fill="#fff"/>
</svg>
