<svg xmlns="http://www.w3.org/2000/svg" viewBox="0 0 40 40" xml:space="preserve">
  <path d="M19.9 0c-.5 0-.8.4-.8.9s.4.9.9.9h.8c.5 0 .8-.4.9-.8 0-.5-.4-.9-.8-.9-.3-.1-.6-.1-1-.1zm-3.5.3c-.3.1-.6.1-.9.2-.5.1-.8.6-.7 1 .1.4.4.7.8.7h.2c.3-.1.5-.1.8-.2.5-.1.8-.5.7-1 0-.4-.5-.8-.9-.7zm7.6.2c-.3.1-.6.3-.7.7-.1.5.2.9.7 1 .3.1.5.1.8.2h.2c.4 0 .7-.3.8-.6.1-.5-.1-.9-.6-1.1-.3-.1-.6-.2-.9-.2H24zM12.4 1.6c-.1 0-.2 0-.3.1-.3.1-.5.2-.8.4-.4.2-.6.7-.4 1.2.2.3.5.5.8.5.1 0 .3 0 .4-.1.2-.1.5-.2.7-.3.4-.2.6-.7.5-1.1-.2-.6-.5-.7-.9-.7zm15.9.3c-.3 0-.7.2-.8.5-.2.4 0 1 .4 1.2.2.1.5.2.7.4h.4c.3 0 .6-.2.8-.5.2-.4.1-1-.4-1.2-.3-.1-.5-.3-.8-.4h-.3zM8.8 3.7c-.2 0-.5 0-.6.2-.2.1-.5.3-.7.5-.4.3-.4.8-.1 1.2.1.2.4.3.6.3.2 0 .4-.1.5-.2.3-.1.5-.3.7-.4.4-.3.5-.9.2-1.3-.1-.2-.3-.3-.6-.3zm23 .4c-.2 0-.4.1-.6.3-.3.4-.2.9.1 1.2.3.3.5.4.7.6.2.1.4.2.6.2.2 0 .5-.1.7-.3.3-.4.3-.9-.1-1.2-.2-.2-.5-.4-.7-.6-.3-.1-.5-.2-.7-.2zM5.5 6.6c-.2 0-.4.1-.6.3-.2.2-.4.4-.6.7-.3.3-.2.9.2 1.2.1.1.3.2.5.2.3 0 .5-.1.7-.3.2-.3.3-.5.5-.7.3-.4.3-.9-.1-1.2-.2-.2-.4-.2-.6-.2zM20 7C12.8 7 7 12.8 7 20s5.9 13 13 13 13-5.9 13-13S27.2 7 20 7zm15 .2c-.2 0-.5 0-.6.2-.4.3-.4.8-.1 1.2.2.2.3.4.5.7.2.2.4.4.7.4.2 0 .4-.1.5-.2.4-.3.5-.8.2-1.2-.2-.2-.4-.5-.5-.7-.3-.3-.5-.4-.7-.4zM20 8.7c6.3 0 11.3 5.1 11.3 11.3s-5 11.3-11.3 11.3S8.7 26.3 8.7 20 13.7 8.7 20 8.7zM3.2 10.1c-.3 0-.7.1-.8.5-.1.3-.3.5-.4.8-.2.4 0 1 .4 1.2.1.1.2.1.4.1.3 0 .6-.2.8-.5.1-.2.2-.5.4-.7.2-.4.1-1-.4-1.2-.2-.2-.3-.2-.4-.2zm34 .7c-.1 0-.2 0-.3.1-.4.2-.6.7-.4 1.2.1.2.2.5.3.7.1.3.5.5.8.5.1 0 .2 0 .3-.1.4-.2.6-.7.5-1.1-.1-.3-.2-.5-.4-.8-.2-.4-.5-.6-.8-.5zM1.4 14.1c-.3 0-.6.3-.7.6-.1.3-.2.6-.2.9-.1.5.2.9.7 1h.2c.4 0 .8-.3.8-.7.1-.3.1-.5.2-.8.1-.5-.1-.9-.6-1.1-.1.1-.3.1-.4.1zm18.6.7c-1.7 0-3 .7-3.9 1.7s-1.3 2.3-1.3 3.6c0 1.3.4 2.6 1.3 3.6s2.2 1.7 3.9 1.7c2.9 0 5.2-2.3 5.2-5.2s-2.3-5.4-5.2-5.4zm18.8 0h-.3c-.5.1-.8.6-.6 1 .1.3.1.5.2.8.1.4.4.7.9.7h.2c.5-.1.8-.5.7-1-.1-.3-.1-.6-.2-.9-.3-.3-.6-.5-.9-.6zM20 16.5c1.9 0 3.5 1.5 3.5 3.5S22 23.5 20 23.5c-1.2 0-2-.4-2.6-1.1-.6-.6-.9-1.5-.9-2.4 0-.9.3-1.8.9-2.4.6-.6 1.4-1.1 2.6-1.1zM.9 18.3c-.5 0-.9.4-.9.8v.9c0 .5.4.8.9.8s.9-.4.9-.9v-.8c0-.4-.4-.8-.9-.8zm38.2.8c-.5 0-.9.4-.9.9v.8c0 .5.4.9.8.9.5 0 .8-.4.9-.8V20l-.9-.1h1c0-.5-.4-.8-.9-.8zM1 22.6c-.5.1-.8.5-.7 1 .1.3.1.6.2.9.1.4.5.7.8.7h.2c.5-.1.8-.6.7-1-.1-.3-.1-.5-.2-.8 0-.6-.5-.9-1-.8zm37.5.8c-.3.1-.6.3-.7.7-.1.3-.1.5-.2.8-.1.5.1.9.6 1.1h.2c.4 0 .7-.3.8-.6.1-.3.2-.6.2-.9.1-.5-.2-.9-.7-1 0-.1-.1-.1-.2-.1zM2.4 26.7c-.1 0-.2 0-.3.1-.4.2-.6.7-.5 1.1.1.3.2.5.4.8.1.3.5.5.8.5.1 0 .3 0 .4-.1.4-.2.6-.7.4-1.2-.1-.2-.2-.5-.3-.7-.2-.3-.6-.5-.9-.5zm34.9.7c-.3 0-.7.2-.8.5-.1.2-.2.5-.4.7-.2.4-.1 1 .4 1.2.1.1.3.1.4.1.3 0 .6-.2.8-.5.1-.3.3-.5.4-.8.2-.4 0-1-.4-1.2-.2.1-.3 0-.4 0zm-32.6 3c-.2 0-.5 0-.6.2-.4.3-.5.8-.2 1.2.1.2.3.5.5.7.2.2.4.3.7.3.2 0 .4-.1.5-.2.4-.3.4-.8.1-1.2-.2-.2-.3-.4-.5-.7-.1-.1-.3-.3-.5-.3zm30.2.7c-.2 0-.4.1-.6.3-.2.2-.3.4-.5.6-.3.4-.3.9.1 1.2.2.1.4.2.6.2.2 0 .5-.1.7-.3.2-.2.4-.5.6-.7.3-.4.2-.9-.1-1.2-.4-.1-.6-.2-.8-.1zM7.4 33.6c-.2 0-.4.1-.6.3-.3.4-.3.9.1 1.2.2.2.5.4.7.6.2.1.4.2.5.2.3 0 .5-.1.7-.3.3-.4.2-.9-.1-1.2-.3-.3-.5-.4-.7-.6-.2-.2-.4-.3-.6-.2zm24.6.5c-.2 0-.5 0-.6.2-.2.2-.4.3-.7.5-.4.3-.5.8-.2 1.2.2.2.4.4.7.4.2 0 .4-.1.5-.2.2-.2.5-.4.7-.5.4-.3.4-.8.1-1.2 0-.3-.2-.4-.5-.4zM11 36c-.3 0-.7.1-.8.5-.2.4-.1 1 .4 1.2.3.1.5.3.8.4.1.1.2.1.4.1.3 0 .6-.2.8-.5.2-.4 0-1-.4-1.2-.2-.1-.5-.2-.7-.4-.2-.1-.4-.1-.5-.1zm17.3.4c-.1 0-.2 0-.3.1-.2.1-.5.2-.7.3-.4.2-.6.7-.5 1.1.1.3.5.5.8.5.1 0 .2 0 .3-.1.3-.1.5-.2.8-.4.4-.2.6-.7.4-1.2-.2-.2-.5-.3-.8-.3zm-13.5 1.2c-.3 0-.6.3-.7.6-.1.5.1.9.6 1.1.3.1.6.2.9.2h.2c.4 0 .8-.3.8-.7.1-.5-.2-.9-.7-1-.3-.1-.5-.1-.8-.2h-.3zm9.6.2h-.3c-.3.1-.5.1-.8.2-.5.1-.8.5-.7 1 .1.4.4.7.9.7h.2c.3-.1.6-.1.9-.2.5-.1.8-.6.7-1-.3-.4-.5-.6-.9-.7zm-5.2.4c-.5 0-.9.4-.9.8 0 .5.4.9.8.9h.9c.5 0 .9-.4.9-.9s-.4-.9-.9-.9c-.3.2-.5.2-.8.1z" fill="#fff"/>
</svg>
