<svg xmlns="http://www.w3.org/2000/svg" viewBox="0 0 99 40" xml:space="preserve">
  <path d="M12.8 8.7c-7 0-12.8 3-12.8 12 0 7.1 3.9 11.6 13 11.6 10.7 0 11.3-7.1 11.3-7.1h-5.2S18 29 12.6 29C8.2 29 5 26 5 21.8h19.8v-2.6c.1-4.1-2.5-10.5-12-10.5zM29.9 0v12.5s2.1-3.7 9-3.7c7.4 0 11.7 5.2 11.7 11.8 0 .8-.1 1.5-.2 2.3 1.2-3.4 5.3-5 12.1-5h6.1v-1.1c0-3.1-2.7-4.7-6.1-4.7-5.3 0-5.6 3.4-5.6 3.4h-5.2c0-.9.7-6.7 11.2-6.7 3.6 0 7.5.8 9.5 3.8l-1.5-2.8h5.9l8.4 17.1 8.4-17.1H99L83.7 40h-5.6l4.4-8.5L73 13.7c.4 1 .7 2.3.7 3.7v12.4c.1 1 .1 1.8.1 1.8h-4.6s-.1-1.6-.1-3.2c0 0-2.4 4.1-9.7 4.1-5.4 0-9.3-2.6-9.3-7.4v-.8c-1.4 4.9-5.6 8.1-11.2 8.1-6.6 0-9.1-3.8-9.1-3.8 0 1.4-.2 3-.2 3h-4.9s.1-1.1.1-2.2V0h5.1zm38.8 21.1H68c-7.5 0-12.6.2-12.6 4 0 2.2 1.6 4.1 5.4 4.1 6.8 0 8-4.7 8-6.6v-1.5h-.1zm-31-8.9c-5.3 0-7.8 4.3-7.8 8.3 0 4.4 2.7 8.4 7.8 8.4 4.2 0 7.7-3.3 7.7-8.4 0-4.7-3-8.3-7.7-8.3zm-25.1-.1c4.2 0 7 2.6 7 6.5H5.2c0-4.2 3.8-6.5 7.4-6.5z" fill-rule="evenodd" clip-rule="evenodd" fill="#fff"/>
</svg>
