<svg xmlns="http://www.w3.org/2000/svg" viewBox="0 0 95 49" xml:space="preserve">
  <path d="M92.8 46.6h.5l.7 1.7.6-1.7h.4v2.1h-.3V47l-.7 1.7h-.3l-.6-1.7v1.7h-.3v-2.1zm-.2 0v.2h-.7v1.9h-.3v-1.9h-.7v-.2h1.7zM95 15.2c0-1.1-.9-2-2.1-2s-2.1.9-2.1 2v4.2c0 1.1.9 2 2.1 2s2.1-.9 2.1-2v-4.2zM83.7 9.6c0-1.1-.9-2-2.1-2-1.1 0-2.1.9-2.1 2v9.8c0 1.1.9 2 2.1 2 1.2 0 2.1-.9 2.1-2V9.6zM72.3 2c0-1.1-.9-2-2.1-2-1.1 0-2.1.9-2.1 2v21.4c0 1.1.9 2 2.1 2 1.1 0 2.1-.9 2.1-2V2zM60.9 9.6c0-1.1-.9-2-2.1-2-1.1 0-2.1.9-2.1 2v9.8c0 1.1.9 2 2.1 2 1.1 0 2.1-.9 2.1-2V9.6zm-11.3 5.6c0-1.1-.9-2-2.1-2s-2.1.9-2.1 2v4.2c0 1.1.9 2 2.1 2s2.1-.9 2.1-2v-4.2zM38.2 9.6c0-1.1-.9-2-2.1-2-1.1 0-2.1.9-2.1 2v9.8c0 1.1.9 2 2.1 2 1.1 0 2.1-.9 2.1-2V9.6zM26.9 2c0-1.1-.9-2-2.1-2-1.1 0-2.1.9-2.1 2v21.4c0 1.1.9 2 2.1 2 1.1 0 2.1-.9 2.1-2V2zM15.5 9.6c0-1.1-.9-2-2.1-2-1.1 0-2.1.9-2.1 2v9.8c0 1.1.9 2 2.1 2 1.1 0 2.1-.9 2.1-2V9.6zM4.1 15.2c0-1.1-.9-2-2.1-2-1.1 0-2.1.9-2.1 2v4.2c0 1.1.9 2 2.1 2 1.1 0 2.1-.9 2.1-2v-4.2zm42.7 21c-.1 0-1.8-.5-3.3-.5-1.7 0-2.6.5-2.6 1.3 0 1 1.2 1.3 1.9 1.5l1.1.3c2.7.8 3.9 2.7 3.9 4.6 0 4.1-3.7 5.4-6.8 5.4-2.2 0-4.3-.4-4.5-.4v-3.7c.4.1 2.1.6 3.9.6 2.1 0 3-.6 3-1.5 0-.8-.8-1.3-1.9-1.6l-.9-.3c-2.3-.7-4.3-2-4.3-4.7 0-3 2.3-5 6.2-5 2 0 3.9.5 4.1.5v3.5h.2zm30.9.2c-2.5 0-4.3 1.9-4.3 4.2s1.8 4.2 4.3 4.2 4.3-1.9 4.3-4.2-1.8-4.2-4.3-4.2zm8.7 4.2c0 4.6-3.6 8.4-8.7 8.4S69 45.3 69 40.6s3.6-8.4 8.7-8.4c5.1.1 8.7 3.8 8.7 8.4zm-65.3-3.4c-.2-.1-1.5-.9-3.5-.9-2.7 0-4.6 1.8-4.6 4.3 0 2.4 1.8 4.3 4.6 4.3 2 0 3.3-.8 3.5-.9v4.3c-.5.1-1.9.6-3.8.6-4.7 0-8.8-3.2-8.8-8.4 0-4.8 3.7-8.4 8.8-8.4 2 0 3.4.5 3.8.6v4.5zm43.5 0c-.2-.1-1.5-.9-3.5-.9-2.7 0-4.6 1.8-4.6 4.3 0 2.4 1.8 4.3 4.6 4.3 2 0 3.3-.8 3.5-.9v4.3c-.5.1-1.9.6-3.8.6-4.7 0-8.8-3.2-8.8-8.4 0-4.8 3.7-8.4 8.8-8.4 2 0 3.4.5 3.8.6v4.5zM31 48.7h-4.2V32.6H31v16.1z" fill-rule="evenodd" clip-rule="evenodd" fill="#fff"/>
</svg>
