<svg xmlns="http://www.w3.org/2000/svg" viewBox="0 0 80 38" xml:space="preserve">
  <path d="M32.9 0c-3.3.2-6.1 3-6.1 6.9v18.7c0 .7-.5 1.3-1.2 1.3h-5.8c-12.7 0-11.6-16.1-.8-16.1h6.5V6.1h-6.7c-4.3 0-7.5 1.6-9.6 4C7 12.5 6 15.7 6 18.9c0 3.2 1.1 6.4 3.3 8.8 2.2 2.4 5.5 4 10.1 4h11c.7 0 1.3-.6 1.3-1.4V7.5c0-1.2.7-2.1 1.5-2.4.8-.3 1.8.1 2.4.9 3.1 5.1 15.6 25 15.6 25.1.3.5.8.6 1 .5.3-.1.6-.4.6-1.2V7.5c0-1.2.7-2.1 1.5-2.4.9-.3 1.9.1 2.4.9 3.1 5.1 15.6 25 15.6 25.1.3.5.7.6 1 .5.3-.1.6-.4.6-1.2V.1h-4.7v17.7S66.4 13 61.6 4.7C57-3.4 48.1 0 48.1 7v10.9s-2.8-4.8-7.6-13.1c-2.1-3.6-5-5-7.6-4.8zM19.6.1c-26.3 0-26 37.4.4 37.4h10.3c4.4 0 7.3-2.6 7.3-7.5v-9.5s5.8 9.6 8.1 13.3c3.9 6.4 13.2 5.1 13.2-2.8V20.6s5.8 9.6 8 13.3c3.9 6.4 13.2 5.1 13.2-2.8V.1h-4.7v30.3c0 1.2-.6 2-1.4 2.3-1 .3-2-.1-2.6-.9 0 0-12.4-19.9-15.6-25.1-.3-.4-.8-.5-1.1-.4-.4.1-.7.4-.7 1.2v22.9c0 1.2-.6 2.1-1.4 2.4-.8.3-1.8-.1-2.4-.9 0 0-12.5-19.9-15.6-25.1-.3-.5-.8-.6-1.1-.5-.4.1-.7.4-.7 1.2v22.8c0 1.4-1.1 2.5-2.5 2.5h-11c-4.8 0-8.5-1.7-10.9-4.4s-3.6-6.1-3.6-9.6 1.2-7 3.6-9.6c2.4-2.6 5.9-4.4 10.5-4.4h6.7V.1h-6z" fill-rule="evenodd" clip-rule="evenodd" fill="#fff"/>
</svg>
