<svg xmlns="http://www.w3.org/2000/svg" viewBox="0 0 110 35" xml:space="preserve">
  <path d="M14.1 27.2c4.1 0 7.3-1.3 9.7-3.8 2.5-2.5 3.3-5.9 3.3-8.7 0-.9-.1-1.7-.2-2.3H14.1v3.7h9.1c-.3 2.1-1 3.6-2.1 4.7-1.3 1.3-3.4 2.7-7 2.7-5.6 0-10-4.4-10-9.9s4.4-9.9 10-9.9c3 0 5.2 1.2 6.9 2.7l2.7-2.6C21.4 1.6 18.4 0 14.1 0 6.4 0 0 6.1 0 13.6s6.4 13.6 14.1 13.6zm23.4 0c5 0 9-3.7 9-8.7 0-5.1-4-8.7-9-8.7s-9 3.7-9 8.7c0 4.9 4 8.7 9 8.7zm0-3.5c-2.7 0-5.1-2.2-5.1-5.3 0-3.1 2.3-5.3 5.1-5.3 2.7 0 5.1 2.1 5.1 5.3-.1 3.1-2.4 5.3-5.1 5.3zm19.6 3.5c5 0 9-3.7 9-8.7 0-5.1-4-8.7-9-8.7s-9 3.7-9 8.7c0 4.9 4 8.7 9 8.7zm0-3.5c-2.7 0-5.1-2.2-5.1-5.3 0-3.1 2.3-5.3 5.1-5.3 2.7 0 5.1 2.1 5.1 5.3 0 3.1-2.4 5.3-5.1 5.3zM76.4 35c4.6 0 8.5-2.6 8.5-9.1V10.2h-3.7v1.4H81c-.9-1-2.6-2-4.7-2-4.5 0-8.6 3.8-8.6 8.8 0 4.9 4.1 8.7 8.6 8.7 2.1 0 3.8-.9 4.7-2h.1v1.3c0 3.3-1.8 5.1-4.8 5.1-2.4 0-3.9-1.7-4.5-3.1l-3.4 1.4c1 2.4 3.6 5.2 8 5.2zm.3-11.3c-2.7 0-5-2.2-5-5.3 0-3.1 2.3-5.3 5-5.3s4.8 2.2 4.8 5.3c-.1 3.1-2.2 5.3-4.8 5.3zM91.6.9h-3.9v25.7h3.9V.9zm10.8 26.3c4.1 0 6.5-2.4 7.5-3.9l-3.1-2c-1 1.5-2.4 2.4-4.4 2.4s-3.4-.9-4.3-2.6l12-4.8-.4-1c-.7-2-3-5.6-7.7-5.6-4.6 0-8.5 3.5-8.5 8.7 0 4.9 3.8 8.8 8.9 8.8zm-5-9.1c-.1-3.4 2.7-5.1 4.7-5.1 1.6 0 2.9.8 3.3 1.9l-8 3.2z" fill-rule="evenodd" clip-rule="evenodd" fill="#fff"/>
</svg>
