<svg xmlns="http://www.w3.org/2000/svg" viewBox="0 0 159 22" xml:space="preserve">
  <path d="M62 19.3H48.2v-6.1c0-.8.7-1.5 1.5-1.5H62c2.1 0 3.9 1.7 3.9 3.8 0 2-1.7 3.8-3.9 3.8zm-13.8-17h13.9c1.9 0 3.5 1.6 3.5 3.5S64 9.3 62.1 9.3H49.6c-.5 0-.9.1-1.3.3V2.3h-.1zm17.5 8.1c1.4-1 2.3-2.7 2.3-4.6C68 2.6 65.4 0 62.1 0H45.7v21.6H62c3.4 0 6.2-2.8 6.2-6.2.1-2-1-3.9-2.5-5zm72.6.4c-.5 0-1 .1-1.5.3V2.3h13.7c2.4 0 4.3 1.9 4.3 4.2 0 2.3-1.9 4.2-4.3 4.2l-12.2.1zm19.1 8.5c-.6.5-1.5.4-2-.2l-4.8-6c3.6-.1 6.4-3 6.4-6.5 0-3.6-3-6.6-6.6-6.6h-16.2v21.6h2.5v-7c0-.8.7-1.4 1.5-1.4h9.2l6 7.5c1.4 1.6 3.8 1.9 5.5.6l-1.5-2zm-64.1-.2v-5.9c0-.8.7-1.5 1.5-1.5h10.9V9.2H94.8c-.5 0-1 .1-1.5.3v-7H111V0H90.8v21.6h21v-2.5H93.3zM20.8.1v12.6c0 4.3-2.1 6.8-8.4 6.8C6.1 19.5 4 17 4 12.7V3.8C3.9 1.7 2.1 0 0 0v2.4c.8 0 1.4.6 1.5 1.3v9.7c0 5 4 8.5 10.9 8.5 7 0 10.9-3.5 10.9-8.5V.1h-2.5z" fill-rule="evenodd" clip-rule="evenodd" fill="#fff"/>
</svg>
