<svg xmlns="http://www.w3.org/2000/svg" viewBox="0 0 123 38" xml:space="preserve">
  <path d="M64.8 9.5c0 1.4-1.1 2.5-2.5 2.5s-2.5-1.1-2.5-2.5S60.9 7 62.3 7c1.4.1 2.5 1.2 2.5 2.5zm-10.3 5v.6s-1.2-1.5-3.7-1.5c-4.2 0-7.5 3.2-7.5 7.5s3.2 7.5 7.5 7.5c2.6 0 3.7-1.6 3.7-1.6v.6c0 .3.2.5.5.5h3.1V14H55c-.2 0-.5.3-.5.5zm0 9.2c-.6.8-1.7 1.6-3.1 1.6-2.5 0-4.3-1.5-4.3-4.1S49 17 51.4 17c1.3 0 2.6.8 3.1 1.6v5.1zm6-9.7h3.7v14.3h-3.7V14zm55.1-.4c-2.5 0-3.7 1.5-3.7 1.5v-8h-3.7v21.2h3.1c.3 0 .5-.3.5-.5v-.6s1.2 1.6 3.7 1.6c4.2 0 7.5-3.2 7.5-7.5s-3.3-7.7-7.4-7.7zm-.6 11.6c-1.4 0-2.5-.7-3.1-1.6v-5.1c.6-.8 1.8-1.6 3.1-1.6 2.5 0 4.3 1.5 4.3 4.1s-1.9 4.2-4.3 4.2zm-8.8-5.4v8.5h-3.7v-8.1c0-2.4-.8-3.3-2.8-3.3-1.1 0-2.3.6-3 1.4v10H93V14h2.9c.3 0 .5.3.5.5v.6c1.1-1.1 2.5-1.5 3.9-1.5 1.6 0 3 .5 4 1.4 1.4 1.1 1.9 2.4 1.9 4.8zm-22.1-6.2c-2.5 0-3.7 1.5-3.7 1.5v-8h-3.7v21.2h3.1c.3 0 .5-.3.5-.5v-.6s1.2 1.6 3.7 1.6c4.2 0 7.5-3.2 7.5-7.5 0-4.5-3.2-7.7-7.4-7.7zm-.6 11.6c-1.4 0-2.5-.7-3.1-1.6v-5.1c.6-.8 1.8-1.6 3.1-1.6 2.5 0 4.3 1.5 4.3 4.1s-1.9 4.2-4.3 4.2zm-10-11.6c1.1 0 1.7.2 1.7.2v3.4s-3.1-1-5 1.1v10h-3.7V14h3.1c.3 0 .5.3.5.5v.6c.7-.8 2.2-1.5 3.4-1.5zM35.2 27c-.2-.5-.4-1-.6-1.4-.3-.7-.6-1.3-.9-1.9C31 18 28.2 12.2 25.2 6.5l-.1-.2-.9-1.8c-.4-.7-.8-1.4-1.4-2.1C21.6.9 19.8 0 17.9 0 16 0 14.2.8 13 2.3c-.6.7-1 1.4-1.4 2.1-.3.6-.6 1.2-1 1.8l-.1.2c-3 5.7-5.8 11.5-8.5 17.2v.1c-.3.6-.6 1.3-.9 1.9-.2.4-.4.9-.6 1.4-.5 1.4-.7 2.7-.5 4.1.4 2.9 2.3 5.2 5 6.3 1 .4 2 .6 3.1.6.3 0 .7 0 1-.1 1.3-.2 2.6-.6 3.8-1.3 1.6-.9 3.1-2.1 4.8-4 1.7 1.8 3.2 3.1 4.8 4 1.3.7 2.6 1.1 3.8 1.3.3 0 .7.1 1 .1 1.1 0 2.2-.2 3.1-.6 2.7-1.1 4.6-3.5 5-6.3.4-1.4.3-2.7-.2-4.1zm-17.4 2c-2.1-2.6-3.4-5-3.9-7.1-.2-.9-.2-1.6-.1-2.3.1-.6.3-1.1.6-1.6.7-1 2-1.7 3.4-1.7s2.7.6 3.4 1.7c.3.5.5 1 .6 1.6.1.7.1 1.5-.1 2.3-.4 2-1.8 4.5-3.9 7.1zm15.4 1.8c-.3 2-1.6 3.7-3.5 4.5-.9.4-1.9.5-2.9.4-1-.1-1.9-.4-2.9-1-1.4-.8-2.8-1.9-4.4-3.7 2.5-3.1 4.1-5.9 4.6-8.4.3-1.2.3-2.2.2-3.2-.2-1-.5-1.8-1-2.6-1.2-1.8-3.2-2.8-5.5-2.8s-4.2 1-5.4 2.7c-.5.8-.9 1.6-1 2.6-.2 1-.1 2.1.2 3.2.6 2.5 2.2 5.4 4.6 8.4-1.6 1.7-3 2.9-4.4 3.7-1 .6-2 .9-2.9 1-1 .1-2 0-2.9-.4-1.9-.8-3.2-2.5-3.5-4.5-.1-1 0-1.9.3-3 .1-.4.3-.8.5-1.2.3-.6.6-1.3.9-1.9v-.1C6.9 19 9.8 13.2 12.7 7.6l.1-.2c.3-.6.6-1.2.9-1.7.3-.6.7-1.2 1.1-1.7.8-.9 1.9-1.4 3.1-1.4 1.2 0 2.3.5 3.1 1.4.4.5.8 1.1 1.1 1.7.3.6.6 1.2.9 1.7l.1.2c2.9 5.7 5.8 11.4 8.4 17.1.3.6.6 1.3.9 1.9.2.5.4.8.5 1.2.3 1 .4 2 .3 3z" fill-rule="evenodd" clip-rule="evenodd" fill="#fff"/>
</svg>
